<svg xmlns="http://www.w3.org/2000/svg" viewBox="0 0 600 600" role="img" aria-label="Portfolio hero illustration">
  <defs>
    <linearGradient id="bg" x1="0%" x2="100%" y1="0%" y2="100%">
      <stop offset="0%" stop-color="#101827"/>
      <stop offset="100%" stop-color="#1f6feb"/>
    </linearGradient>
    <linearGradient id="panel" x1="0%" x2="100%" y1="0%" y2="100%">
      <stop offset="0%" stop-color="#f8fafc"/>
      <stop offset="100%" stop-color="#dbeafe"/>
    </linearGradient>
  </defs>
  <rect width="600" height="600" rx="36" fill="url(#bg)"/>
  <circle cx="430" cy="130" r="84" fill="#60a5fa" opacity="0.8"/>
  <rect x="90" y="120" width="420" height="320" rx="28" fill="url(#panel)" opacity="0.95"/>
  <rect x="150" y="170" width="220" height="18" rx="9" fill="#1d4ed8" opacity="0.7"/>
  <rect x="150" y="210" width="290" height="18" rx="9" fill="#93c5fd" opacity="0.9"/>
  <rect x="150" y="250" width="260" height="18" rx="9" fill="#93c5fd" opacity="0.9"/>
  <rect x="150" y="290" width="160" height="18" rx="9" fill="#93c5fd" opacity="0.9"/>
  <circle cx="450" cy="420" r="68" fill="#fbbf24" opacity="0.85"/>
  <path d="M210 420c26-58 74-92 132-92 66 0 118 36 148 92H210z" fill="#0f172a" opacity="0.9"/>
  <circle cx="285" cy="260" r="74" fill="#0f172a"/>
  <path d="M240 300c24-26 52-38 82-38s58 12 82 38v82H240v-82z" fill="#f8fafc" opacity="0.9"/>
</svg>
